# File created by Blade
# Date/Time:  Thu Sep 25 18:48:06 2014
# Frame Rate: 120.000 fps
#------------------------------------------------------
:FULLY-SPECIFIED
:DEGREES
1250
root 1.603863 32.794335 3.223998 11.604775 3.178885 0.910082
Spine -25.029532 4.920604 -4.053845
Head 7.191108 -6.866654 18.564486
LeftShoulder -10.408794 10.981185 25.916971
LeftArm 163.744645 -30.736756 -103.492880
LeftForeArm -31.319803 -0.000000 152.626677
LeftHand -3.330576 0.000000 -15.254610
LeftHandThumb1 -26.253704 0.000000 33.147579
RightShoulder -6.440748 8.762968 -13.806336
RightArm -147.563054 -67.290037 250.587104
RightForeArm -29.351278 -0.000000 110.547374
RightHand 48.143609 0.000000 -8.068044
RightHandThumb1 -24.326973 -0.000000 -32.862282
LeftUpLeg -1.524822 6.168345 2.082253
LeftLeg -4.240524 -0.000000 0.000000
LeftFoot -9.025190 3.060912 -13.513419
LeftToeBase 11.022651 -0.000000 -0.000000
RightUpLeg -1.114879 -15.206722 -6.599030
RightLeg -1.984486 -0.000000 0.000000
RightFoot -6.132610 -1.879789 7.293335
RightToeBase 0.487558 -0.000000 -0.000000
1251
root 1.603571 32.794307 3.224407 11.575162 3.137771 0.897710
Spine -25.004813 4.919428 -4.010724
Head 7.232480 -6.727335 18.555793
LeftShoulder -10.428515 10.942857 25.882872
LeftArm 163.832512 -30.810323 -103.500203
LeftForeArm -31.349287 -0.000000 152.635873
LeftHand -3.417175 -0.000000 -15.113656
LeftHandThumb1 -26.253704 0.000000 33.147579
RightShoulder -6.447113 8.768342 -13.816798
RightArm -147.363546 -67.291496 250.419635
RightForeArm -29.144437 -0.000000 110.481846
RightHand 48.202035 -0.000000 -7.926879
RightHandThumb1 -24.326973 -0.000000 -32.862282
LeftUpLeg -1.494976 6.202856 2.093181
LeftLeg -4.234589 -0.000000 0.000000
LeftFoot -8.980311 3.016334 -13.659563
LeftToeBase 10.797988 -0.000000 -0.000000
RightUpLeg -1.098427 -15.142914 -6.603155
RightLeg -1.971480 -0.000000 0.000000
RightFoot -6.148346 -1.880522 7.321343
RightToeBase 0.565936 -0.000000 -0.000000
1252
root 1.604686 32.794625 3.224907 11.547966 3.086089 0.896675
Spine -24.998491 4.928410 -3.989718
Head 7.293177 -6.603123 18.624500
LeftShoulder -10.438410 10.897565 25.870985
LeftArm 163.842313 -30.907316 -103.478182
LeftForeArm -31.253005 0.000000 152.639677
LeftHand -3.373199 -0.000000 -15.026971
LeftHandThumb1 -26.253704 0.000000 33.147579
RightShoulder -6.440817 8.744730 -13.787357
RightArm -147.238023 -67.365403 250.301986
RightForeArm -29.162546 -0.000000 110.429361
RightHand 48.242848 -0.000000 -7.857962
RightHandThumb1 -24.326973 -0.000000 -32.862282
LeftUpLeg -1.460919 6.210811 2.086602
LeftLeg -4.234555 -0.000000 0.000000
LeftFoot -8.990050 3.052326 -13.697960
LeftToeBase 10.759391 -0.000000 -0.000000
RightUpLeg -1.093774 -15.086291 -6.618741
RightLeg -1.946111 -0.000000 0.000000
RightFoot -6.142725 -1.891245 7.287745
RightToeBase 0.487169 -0.000000 -0.000000
1253
root 1.605069 32.794897 3.225813 11.534481 3.029260 0.898409
Spine -25.004604 4.944100 -3.971243
Head 7.330434 -6.499801 18.651969
LeftShoulder -10.417472 10.697481 25.881904
LeftArm 163.732942 -31.048231 -103.404789
LeftForeArm -31.215256 -0.000000 152.626850
LeftHand -3.293448 -0.000000 -14.937546
LeftHandThumb1 -26.253704 0.000000 33.147579
RightShoulder -6.458396 8.727208 -13.765254
RightArm -147.043668 -67.512495 250.095646
RightForeArm -29.156592 -0.000000 110.377760
RightHand 48.643865 -0.000000 -7.592322
RightHandThumb1 -24.326973 -0.000000 -32.862282
LeftUpLeg -1.437017 6.239098 2.076414
LeftLeg -4.237759 -0.000000 0.000000
LeftFoot -8.993120 3.089645 -13.655149
LeftToeBase 10.778675 -0.000000 -0.000000
RightUpLeg -1.100980 -15.025979 -6.633334
RightLeg -1.923040 -0.000000 0.000000
RightFoot -6.171734 -1.891373 7.330125
RightToeBase 0.599127 -0.000000 -0.000000
1254
root 1.606684 32.794753 3.228511 11.498918 2.973586 0.896008
Spine -24.990318 4.981270 -3.949920
Head 7.329566 -6.418076 18.684989
LeftShoulder -10.416741 10.608063 25.901668
LeftArm 163.713464 -31.137903 -103.385417
LeftForeArm -31.057522 0.000000 152.663376
LeftHand -3.300620 0.000000 -14.862961
LeftHandThumb1 -26.253704 0.000000 33.147579
RightShoulder -6.477027 8.718984 -13.738106
RightArm -146.877858 -67.592987 249.904765
RightForeArm -29.192579 -0.000000 110.340874
RightHand 48.791541 -0.000000 -7.516488
RightHandThumb1 -24.326973 -0.000000 -32.862282
LeftUpLeg -1.387843 6.296575 2.068366
LeftLeg -4.240823 -0.000000 0.000000
LeftFoot -9.000153 3.098524 -13.634072
LeftToeBase 10.776117 -0.000000 -0.000000
RightUpLeg -1.079330 -14.968033 -6.651810
RightLeg -1.911796 -0.000000 0.000000
RightFoot -6.150550 -1.896848 7.276651
RightToeBase 0.460122 -0.000000 -0.000000
